<svg id="Group_220" data-name="Group 220" xmlns="http://www.w3.org/2000/svg" width="32.856" height="36.138" viewBox="0 0 32.856 36.138">
  <path id="Path_136" data-name="Path 136" d="M186.518,162.348h-2.035a31.939,31.939,0,0,1-4-9.208h2.035A31.938,31.938,0,0,0,186.518,162.348Z" transform="translate(-178.957 -126.212)" fill="#f4e3d6"/>
  <path id="Path_137" data-name="Path 137" d="M210.328,162.348h-3.285a31.939,31.939,0,0,1-4-9.208h3.285A31.939,31.939,0,0,0,210.328,162.348Z" transform="translate(-197.137 -126.212)" fill="#f4e3d6"/>
  <path id="Path_138" data-name="Path 138" d="M186.518,14.44h-2.035a32.453,32.453,0,0,0-4,9.311h2.035A32.452,32.452,0,0,1,186.518,14.44Z" transform="translate(-178.957 -14.44)" fill="#f4e3d6"/>
  <path id="Path_139" data-name="Path 139" d="M208.718,14.44h-3.285a32.452,32.452,0,0,0-4,9.311h3.285A32.452,32.452,0,0,1,208.718,14.44Z" transform="translate(-195.839 -14.44)" fill="#f4e3d6"/>
  <path id="Path_140" data-name="Path 140" d="M257.231,100.909c-.008-.019-.014-.037-.019-.052a.194.194,0,0,1-.012-.037.226.226,0,0,1,.012.029.291.291,0,0,0,.012.027.143.143,0,0,1,.01.031Z" transform="translate(-240.782 -84.05)" fill="#f4e3d6"/>
  <path id="Path_141" data-name="Path 141" d="M175.5,85.18h-2.075a40.531,40.531,0,0,1-.788-7.477,36.72,36.72,0,0,1,.561-6.923h2.128a56.892,56.892,0,0,0-.342,6.879,63.411,63.411,0,0,0,.518,7.521Z" transform="translate(-172.633 -59.842)" fill="#f4e3d6"/>
  <path id="Path_142" data-name="Path 142" d="M257.2,100.857a.194.194,0,0,1-.012-.037.226.226,0,0,1,.012.029.275.275,0,0,0,.012.027.147.147,0,0,1,.01.031c-.008-.019-.014-.037-.019-.052Z" transform="translate(-240.774 -84.05)" fill="#f4e3d6"/>
  <path id="Path_143" data-name="Path 143" d="M257.2,100.857a.194.194,0,0,1-.012-.037.226.226,0,0,1,.012.029.275.275,0,0,0,.012.027.147.147,0,0,1,.01.031c-.008-.019-.014-.037-.019-.052Z" transform="translate(-240.774 -84.05)" fill="#f4e3d6"/>
  <path id="Path_144" data-name="Path 144" d="M200.316,85.692h-4a38.222,38.222,0,0,1-.8-7.306,34.425,34.425,0,0,1,.573-6.766h4.005a62.956,62.956,0,0,0-.268,6.4,69.63,69.63,0,0,0,.489,7.678Z" transform="translate(-191.072 -60.519)" fill="#f4e3d6"/>
  <path id="Path_145" data-name="Path 145" d="M257.221,100.878a.148.148,0,0,1,.01.031c-.008-.019-.014-.037-.019-.052a.194.194,0,0,1-.012-.037.226.226,0,0,1,.012.029.293.293,0,0,0,.012.027Z" transform="translate(-240.782 -84.05)" fill="#f4e3d6"/>
  <path id="Path_146" data-name="Path 146" d="M257.2,100.857a.194.194,0,0,1-.012-.037.226.226,0,0,1,.012.029.275.275,0,0,0,.012.027.147.147,0,0,1,.01.031c-.008-.019-.014-.037-.019-.052Z" transform="translate(-240.774 -84.05)" fill="#f4e3d6"/>
  <path id="Path_147" data-name="Path 147" d="M309.369,153.15a38.066,38.066,0,0,1-3.9,9.208H303.43a38.022,38.022,0,0,0,3.9-9.208Z" transform="translate(-278.036 -126.22)" fill="#f4e3d6"/>
  <path id="Path_148" data-name="Path 148" d="M279.834,153.15a38.064,38.064,0,0,1-3.9,9.208h-3.91a38.02,38.02,0,0,0,3.9-9.208Z" transform="translate(-252.725 -126.22)" fill="#f4e3d6"/>
  <path id="Path_149" data-name="Path 149" d="M240.728,153.15H236.54a57.5,57.5,0,0,0,3.423,9.208h1.3a57.407,57.407,0,0,0,3.423-9.208Z" transform="translate(-224.133 -126.22)" fill="#f4e3d6"/>
  <path id="Path_150" data-name="Path 150" d="M310.979,23.751a38.681,38.681,0,0,0-3.9-9.311H305.04a38.681,38.681,0,0,1,3.9,9.311h2.035Z" transform="translate(-279.334 -14.44)" fill="#f4e3d6"/>
  <path id="Path_151" data-name="Path 151" d="M279.834,23.751a38.679,38.679,0,0,0-3.9-9.311h-3.91a38.681,38.681,0,0,1,3.9,9.311Z" transform="translate(-252.725 -14.44)" fill="#f4e3d6"/>
  <path id="Path_152" data-name="Path 152" d="M241.263,14.44h-1.3a58.492,58.492,0,0,0-3.423,9.311h8.146A58.492,58.492,0,0,0,241.263,14.44Z" transform="translate(-224.133 -14.44)" fill="#f4e3d6"/>
  <path id="Path_153" data-name="Path 153" d="M329.772,77.7a38.34,38.34,0,0,1-.856,7.477H326.86a59.238,59.238,0,0,0,.565-7.521,52.849,52.849,0,0,0-.382-6.879h2.108a34.074,34.074,0,0,1,.619,6.923Z" transform="translate(-296.918 -59.842)" fill="#f4e3d6"/>
  <path id="Path_154" data-name="Path 154" d="M299.1,78.378a37.253,37.253,0,0,1-.848,7.306H294.38a66.563,66.563,0,0,0,.52-7.678,59.186,59.186,0,0,0-.291-6.4h3.875a32.994,32.994,0,0,1,.613,6.766Z" transform="translate(-270.744 -60.511)" fill="#f4e3d6"/>
  <path id="Path_155" data-name="Path 155" d="M242.546,71.62H233.5c-.107,2.035-.171,4.3-.161,6.766.012,2.679.1,5.125.225,7.306h8.917c.138-2.221.233-4.679.245-7.306C242.733,75.963,242.663,73.69,242.546,71.62Z" transform="translate(-221.55 -60.519)" fill="#f4e3d6"/>
</svg>
