<svg xmlns="http://www.w3.org/2000/svg" width="45.185" height="34.541" viewBox="0 0 45.185 34.541">
  <g id="Group_399" data-name="Group 399" transform="translate(-322.815 -652.965)">
    <g id="Group_219" data-name="Group 219" transform="translate(334.171 652.965)">
      <path id="Path_156" data-name="Path 156" d="M135.294,140.313c-.317-2.848-5.691-6.954-5.691-6.954v-7.588h2.848l-.317-2.848h-5.057c-.951,0-5.374-.634-5.374-.634s-1.1,2.055-.476,3a1.411,1.411,0,0,0,1.58.634s-.317,6.325-.951,6.325-3.794,2.214-5.057,3.16-3.318,4.269-3.318,4.269-.634,7.271.317,11.7,5.691,5.374,5.691,5.374,9.8.317,12.015-.317,3.794-3.477,4.111-4.428,0-8.851-.317-11.7Zm-5.532,13.437c-2.214.317-10.119,0-10.119,0a3.913,3.913,0,0,1-3.16-2.531c-.629-2.214,0-10.119,0-10.119a30.81,30.81,0,0,1,4.428-4.111c1.9-1.263,3.477-2.531,3.477-2.531a48.117,48.117,0,0,1,.317-5.691c.317-1.9.317-2.848,1.263-2.848s.951,1.263.951,1.263l.317,8.222s5.374,4.428,5.374,5.057.317,10.436.317,10.436-.951,2.531-3.16,2.848Z" transform="translate(-113.275 -122.29)" fill="#f4e3d6"/>
      <g id="Group_187" data-name="Group 187" transform="translate(5.893 21.817)">
        <path id="Path_157" data-name="Path 157" d="M124.8,164.96h11.064l.317,6.642s0,1.263-.634,1.263h-9.485s-1.263-.317-1.263-1.263Z" transform="translate(-124.8 -164.96)" fill="#f4e3d6"/>
        <path id="Path_158" data-name="Path 158" d="M130.99,166.19h7.992l.23,6.11s0,1.166-.455,1.166h-6.851a1.319,1.319,0,0,1-.915-1.166Z" transform="translate(-127.825 -165.561)" fill="#f4e3d6"/>
      </g>
    </g>
    <g id="Group_222" data-name="Group 222" transform="translate(-10.143 -2)">
      <path id="Path_253" data-name="Path 253" d="M406.367,0s-.274,1.1,0,1.237,1.1,0,1.1.274a30.7,30.7,0,0,1,0,3.575c-.137.824-2.338,3.988-2.338,4.262s.137,2.062.413,2.2,2.552,2.737,2.552,2.737l.61-.674a5.3,5.3,0,0,1-1.787-3.575c0-2.063,1.374-3.025,1.65-3.988a32.874,32.874,0,0,0,.274-4.675h2.338a28.857,28.857,0,0,0,.137,4.262c.687,2.475,2.2,3.025,2.2,3.988a3.791,3.791,0,0,1-1.511,2.888c-.963.687-1.1,1.237-1.1,1.237l.687.413s3.575-3.025,3.438-4.4-2.062-3.162-2.2-3.988-.687-3.575-.274-3.988a2.035,2.035,0,0,1,1.237-.413L413.656,0h-7.287Z" transform="translate(-72.172 675)" fill="#f4e3d6"/>
      <path id="Path_254" data-name="Path 254" d="M421.879,44.162s1.048.815,1.048,1.63a1.668,1.668,0,0,1-.582,1.28c-.349.233-.931.116-.931.7v1.863h-.931s.349-1.048.116-1.513-1.862-1.63-1.979-2.1a2.335,2.335,0,0,1,.488-1.936,11.585,11.585,0,0,1,2.769.075Z" transform="translate(-83.095 639.253)" fill="#f4e3d6"/>
    </g>
    <g id="Group_229" data-name="Group 229" transform="translate(25.138 -2)">
      <path id="Path_253-2" data-name="Path 253" d="M406.367,0s-.274,1.1,0,1.237,1.1,0,1.1.274a30.7,30.7,0,0,1,0,3.575c-.137.824-2.338,3.988-2.338,4.262s.137,2.062.413,2.2,2.552,2.737,2.552,2.737l.61-.674a5.3,5.3,0,0,1-1.787-3.575c0-2.063,1.374-3.025,1.65-3.988a32.874,32.874,0,0,0,.274-4.675h2.338a28.857,28.857,0,0,0,.137,4.262c.687,2.475,2.2,3.025,2.2,3.988a3.791,3.791,0,0,1-1.511,2.888c-.963.687-1.1,1.237-1.1,1.237l.687.413s3.575-3.025,3.438-4.4-2.062-3.162-2.2-3.988-.687-3.575-.274-3.988a2.035,2.035,0,0,1,1.237-.413L413.656,0h-7.287Z" transform="translate(-72.172 675)" fill="#f4e3d6"/>
      <path id="Path_254-2" data-name="Path 254" d="M421.879,44.162s1.048.815,1.048,1.63a1.668,1.668,0,0,1-.582,1.28c-.349.233-.931.116-.931.7v1.863h-.931s.349-1.048.116-1.513-1.862-1.63-1.979-2.1a2.335,2.335,0,0,1,.488-1.936,11.585,11.585,0,0,1,2.769.075Z" transform="translate(-83.095 639.253)" fill="#f4e3d6"/>
    </g>
  </g>
</svg>
