<svg id="Group_318" data-name="Group 318" xmlns="http://www.w3.org/2000/svg" xmlns:xlink="http://www.w3.org/1999/xlink" width="23.261" height="31.982" viewBox="0 0 23.261 31.982">
  <defs>
    <clipPath id="clip-path">
      <rect id="Rectangle_264" data-name="Rectangle 264" width="23.261" height="31.982" fill="#eadfd6"/>
    </clipPath>
  </defs>
  <g id="Group_317" data-name="Group 317" clip-path="url(#clip-path)">
    <path id="Path_269" data-name="Path 269" d="M22.869,11.375,19.705.821a1.144,1.144,0,0,0-.419-.593A1.182,1.182,0,0,0,18.59,0H4.672a1.182,1.182,0,0,0-.7.227,1.148,1.148,0,0,0-.419.593L.393,11.375a8.912,8.912,0,0,0-.076,4.972,9.031,9.031,0,0,0,2.607,4.261,12.806,12.806,0,0,0,7.544,3.326V29.7H5.818A1.174,1.174,0,0,0,5,30.032a1.128,1.128,0,0,0,0,1.616,1.173,1.173,0,0,0,.822.334H17.444a1.173,1.173,0,0,0,.822-.334,1.128,1.128,0,0,0,0-1.616,1.174,1.174,0,0,0-.822-.335h-4.65V23.934a12.806,12.806,0,0,0,7.544-3.326,9.031,9.031,0,0,0,2.607-4.261,8.912,8.912,0,0,0-.076-4.972M5.541,2.285H17.722l2.919,9.736c.013.043.024.086.036.128-3.112,1.1-6.618-.228-8.52-1.175a14.287,14.287,0,0,0-8.711-1.7ZM18.752,18.94a10.555,10.555,0,0,1-14.242,0,6.774,6.774,0,0,1-1.949-3.195,6.674,6.674,0,0,1,.06-3.724l.065-.218c1.744-.579,4.516-.734,8.419,1.21a16.4,16.4,0,0,0,7.038,1.835,10.117,10.117,0,0,0,2.769-.372,6.694,6.694,0,0,1-2.16,4.464" transform="translate(0 0)" fill="#eadfd6"/>
  </g>
</svg>
