<svg id="Group_316" data-name="Group 316" xmlns="http://www.w3.org/2000/svg" xmlns:xlink="http://www.w3.org/1999/xlink" width="37.312" height="31.982" viewBox="0 0 37.312 31.982">
  <defs>
    <clipPath id="clip-path">
      <rect id="Rectangle_263" data-name="Rectangle 263" width="37.312" height="31.982" fill="#eadfd6"/>
    </clipPath>
  </defs>
  <g id="Group_315" data-name="Group 315" clip-path="url(#clip-path)">
    <path id="Path_268" data-name="Path 268" d="M9.994,14.658a2,2,0,1,1-.586-1.413,2,2,0,0,1,.586,1.413m27.318,0V29.317a2.666,2.666,0,0,1-2.665,2.665H15.991a2.665,2.665,0,0,1-2.665-2.665V25.71c-1.438,2.336-3.3,3.607-5.33,3.607-2.31,0-4.408-1.648-5.9-4.639A22.9,22.9,0,0,1,0,14.658,22.915,22.915,0,0,1,2.092,4.64C3.588,1.647,5.685,0,8,0H29.317c2.31,0,4.408,1.647,5.9,4.64a22.915,22.915,0,0,1,2.092,10.019m-23.986,0C13.326,7.59,10.517,2.665,8,2.665S2.665,7.59,2.665,14.658,5.474,26.651,8,26.651s5.33-4.925,5.33-11.993M34.647,29.317V15.991H31.982a1.332,1.332,0,1,1,0-2.665h2.631c-.325-6.347-2.937-10.661-5.3-10.661H12.679A12.234,12.234,0,0,1,13.9,4.64a22.1,22.1,0,0,1,2.061,8.686h2.7a1.332,1.332,0,0,1,0,2.665H15.991V29.317Zm-8-15.991H23.986a1.332,1.332,0,0,0,0,2.665h2.665a1.332,1.332,0,1,0,0-2.665" fill="#eadfd6"/>
  </g>
</svg>
