<svg id="Group_308" data-name="Group 308" xmlns="http://www.w3.org/2000/svg" xmlns:xlink="http://www.w3.org/1999/xlink" width="18.41" height="19.211" viewBox="0 0 18.41 19.211">
  <defs>
    <clipPath id="clip-path">
      <rect id="Rectangle_262" data-name="Rectangle 262" width="18.41" height="19.211" fill="#f2e1d6"/>
    </clipPath>
  </defs>
  <g id="Group_307" data-name="Group 307" transform="translate(0 0)" clip-path="url(#clip-path)">
    <path id="Path_265" data-name="Path 265" d="M1.6,15.609a1.839,1.839,0,0,0,1.6,2,1.424,1.424,0,0,0,1.022-.466A.8.8,0,0,1,5.381,18.25a3.008,3.008,0,0,1-2.179.961,3.424,3.424,0,0,1-3.2-3.6,3.423,3.423,0,0,1,3.2-3.6,3.005,3.005,0,0,1,2.179.96.8.8,0,0,1-1.157,1.107A1.422,1.422,0,0,0,3.2,13.607a1.839,1.839,0,0,0-1.6,2m7.964-.87a4.6,4.6,0,0,1-1.045-.384c-.125-.081-.123-.1-.112-.19a.458.458,0,0,1,.2-.367,3.139,3.139,0,0,1,1.983-.056.8.8,0,1,0,.415-1.548,4.607,4.607,0,0,0-3.286.276,2.061,2.061,0,0,0-.9,1.5c-.2,1.589,1.366,2.042,2.3,2.312,1.206.349,1.312.492,1.278.759a.491.491,0,0,1-.214.393,3.076,3.076,0,0,1-1.956.036A.8.8,0,1,0,7.8,19.011a6.145,6.145,0,0,0,1.52.2,3.162,3.162,0,0,0,1.75-.446,2.086,2.086,0,0,0,.92-1.524c.219-1.732-1.433-2.215-2.423-2.5m8.314-2.685a.8.8,0,0,0-1.023.484L15.609,16.03l-1.247-3.492a.8.8,0,1,0-1.508.539l2,5.6a.8.8,0,0,0,1.508,0l2-5.6a.8.8,0,0,0-.485-1.023M18.41,6.4V8.8a.8.8,0,0,1-1.6,0V7.2h-4.8a.8.8,0,0,1-.8-.8V1.6H2.4V8.8a.8.8,0,0,1-1.6,0V1.6A1.6,1.6,0,0,1,2.4,0h9.6a.8.8,0,0,1,.567.235l5.6,5.6a.8.8,0,0,1,.234.567m-2.733-.8L12.807,2.733V5.6Z" transform="translate(0 0)" fill="#f2e1d6"/>
  </g>
</svg>
