<svg xmlns="http://www.w3.org/2000/svg" xmlns:xlink="http://www.w3.org/1999/xlink" width="31.39" height="34.142" viewBox="0 0 31.39 34.142">
  <defs>
    <clipPath id="clip-path">
      <rect id="Rectangle_265" data-name="Rectangle 265" width="31.39" height="34.142" fill="#eadfd6"/>
    </clipPath>
  </defs>
  <g id="Group_320" data-name="Group 320" transform="translate(0 0)">
    <g id="Group_319" data-name="Group 319" transform="translate(0 0.001)" clip-path="url(#clip-path)">
      <path id="Path_270" data-name="Path 270" d="M6.824,9.576V1.387a1.365,1.365,0,0,1,2.73,0V9.576a1.365,1.365,0,0,1-2.73,0M31.39,1.387v31.39a1.365,1.365,0,0,1-2.73,0V24.588H20.472a1.364,1.364,0,0,1-1.365-1.365,45.806,45.806,0,0,1,1.231-9.7C22.007,6.612,25.17,1.982,29.488.133a1.365,1.365,0,0,1,1.9,1.254M28.66,3.758c-5.488,4.192-6.563,14.4-6.773,18.1H28.66Zm-13.667-2.6a1.365,1.365,0,1,0-2.692.449l1.346,8.071a5.459,5.459,0,1,1-10.918,0L4.074,1.612A1.366,1.366,0,0,0,2.418.036,1.365,1.365,0,0,0,1.382,1.163L.017,9.352A1.339,1.339,0,0,0,0,9.576a8.2,8.2,0,0,0,6.824,8.073V32.777a1.365,1.365,0,0,0,2.73,0V17.648a8.2,8.2,0,0,0,6.824-8.073,1.34,1.34,0,0,0-.019-.223Z" transform="translate(0 0)" fill="#eadfd6"/>
    </g>
  </g>
</svg>
