<svg xmlns="http://www.w3.org/2000/svg" width="27.44" height="22.723" viewBox="0 0 27.44 22.723">
  <g id="Group_228" data-name="Group 228" transform="translate(0.75 0.75)">
    <g id="Group_279" data-name="Group 279" transform="translate(0 0)">
      <path id="Rectangle_226" data-name="Rectangle 226" d="M4.773,0h8.14a4.773,4.773,0,0,1,4.773,4.773v5.781a4.774,4.774,0,0,1-4.774,4.774H4.773A4.773,4.773,0,0,1,0,10.555V4.773A4.773,4.773,0,0,1,4.773,0Z" transform="translate(0 0)" fill="none" stroke="#f4e3d7" stroke-linecap="round" stroke-linejoin="round" stroke-width="1.5"/>
      <path id="Path_259" data-name="Path 259" d="M45.277,15.725h3.052a1.176,1.176,0,0,1,.832.345l2.848,2.848a1.176,1.176,0,0,1,.345.832v4.231a1.178,1.178,0,0,1-1.178,1.177h-5.9A1.177,1.177,0,0,1,44.1,23.981V16.9A1.177,1.177,0,0,1,45.277,15.725Z" transform="translate(-26.414 -9.829)" fill="none" stroke="#f4e3d7" stroke-linecap="round" stroke-linejoin="round" stroke-width="1.5"/>
      <circle id="Ellipse_16" data-name="Ellipse 16" cx="2.948" cy="2.948" r="2.948" transform="translate(2.358 15.328)" fill="none" stroke="#f4e3d7" stroke-linecap="round" stroke-linejoin="round" stroke-width="1.5"/>
      <circle id="Ellipse_17" data-name="Ellipse 17" cx="2.948" cy="2.948" r="2.948" transform="translate(17.686 15.328)" fill="none" stroke="#f4e3d7" stroke-linecap="round" stroke-linejoin="round" stroke-width="1.5"/>
    </g>
  </g>
</svg>
