<svg xmlns="http://www.w3.org/2000/svg" width="12.639" height="19.426" viewBox="0 0 12.639 19.426">
  <g id="Group_233" data-name="Group 233" transform="translate(0 0)">
    <g id="Group_219" data-name="Group 219" transform="translate(0 0)">
      <path id="Path_156" data-name="Path 156" d="M125.659,132.427c-.178-1.6-3.2-3.911-3.2-3.911v-4.267h1.6l-.178-1.6h-2.844c-.535,0-3.022-.357-3.022-.357s-.621,1.156-.267,1.688a.793.793,0,0,0,.889.357s-.178,3.557-.535,3.557a14.026,14.026,0,0,0-2.844,1.777,12.617,12.617,0,0,0-1.866,2.4,28.494,28.494,0,0,0,.178,6.579,4.247,4.247,0,0,0,3.2,3.022s5.513.178,6.758-.178A4.363,4.363,0,0,0,125.84,139a43.49,43.49,0,0,0-.178-6.579Zm-3.111,7.557c-1.245.178-5.691,0-5.691,0a2.2,2.2,0,0,1-1.777-1.423c-.354-1.245,0-5.691,0-5.691a17.328,17.328,0,0,1,2.49-2.312c1.067-.71,1.955-1.423,1.955-1.423a27.062,27.062,0,0,1,.178-3.2c.178-1.067.178-1.6.71-1.6s.535.71.535.71l.178,4.624s3.022,2.49,3.022,2.844.178,5.869.178,5.869a2.6,2.6,0,0,1-1.777,1.6Z" transform="translate(-113.275 -122.29)" fill="#f4e3d6"/>
      <g id="Group_187" data-name="Group 187" transform="translate(3.314 12.27)">
        <path id="Path_157" data-name="Path 157" d="M124.8,164.96h6.223l.178,3.735s0,.71-.357.71H125.51s-.71-.178-.71-.71Z" transform="translate(-124.8 -164.96)" fill="#f4e3d6"/>
        <path id="Path_158" data-name="Path 158" d="M130.99,166.19h4.495l.129,3.436s0,.656-.256.656H131.5a.742.742,0,0,1-.515-.656Z" transform="translate(-129.21 -165.836)" fill="#f4e3d6"/>
      </g>
    </g>
  </g>
</svg>
