<svg xmlns="http://www.w3.org/2000/svg" width="35.512" height="29.419" viewBox="0 0 35.512 29.419">
  <g id="Group_228" data-name="Group 228" transform="translate(0.175 0.175)">
    <g id="Group_304" data-name="Group 304" transform="translate(0 0)">
      <path id="Rectangle_226" data-name="Rectangle 226" d="M4.773,0h13.3a4.773,4.773,0,0,1,4.773,4.773V15.029A4.774,4.774,0,0,1,18.075,19.8H4.773A4.773,4.773,0,0,1,0,15.03V4.773A4.773,4.773,0,0,1,4.773,0Z" transform="translate(0.825 0.825)" fill="none" stroke="#f4e3d7" stroke-linecap="round" stroke-linejoin="round" stroke-width="2"/>
      <path id="Path_259" data-name="Path 259" d="M45.621,15.725h3.942a1.519,1.519,0,0,1,1.075.446l3.679,3.679a1.52,1.52,0,0,1,.446,1.075v5.466a1.521,1.521,0,0,1-1.521,1.521H45.621A1.521,1.521,0,0,1,44.1,26.391V17.246A1.521,1.521,0,0,1,45.621,15.725Z" transform="translate(-20.426 -7.283)" fill="none" stroke="#f4e3d7" stroke-linecap="round" stroke-linejoin="round" stroke-width="2"/>
      <circle id="Ellipse_16" data-name="Ellipse 16" cx="3.808" cy="3.808" r="3.808" transform="translate(3.872 20.628)" fill="none" stroke="#f4e3d7" stroke-linecap="round" stroke-linejoin="round" stroke-width="2"/>
      <circle id="Ellipse_17" data-name="Ellipse 17" cx="3.808" cy="3.808" r="3.808" transform="translate(23.674 20.628)" fill="none" stroke="#f4e3d7" stroke-linecap="round" stroke-linejoin="round" stroke-width="2"/>
    </g>
  </g>
</svg>
